<?xml version="1.0" encoding="UTF-8" standalone="no"?>
<!DOCTYPE svg PUBLIC "-//W3C//DTD SVG 1.1//EN" "http://www.w3.org/Graphics/SVG/1.1/DTD/svg11.dtd">
<!-- Created with Vectornator (http://vectornator.io/) -->
<svg height="100%" stroke-miterlimit="10" style="fill-rule:nonzero;clip-rule:evenodd;stroke-linecap:round;stroke-linejoin:round;" version="1.1" viewBox="0 0 2048 2048" width="100%" xml:space="preserve" xmlns="http://www.w3.org/2000/svg" xmlns:vectornator="http://vectornator.io" xmlns:xlink="http://www.w3.org/1999/xlink">
<defs/>
<g id="Layer-1" vectornator:layerName="Layer 1"/>
<g id="Untitled" vectornator:layerName="Untitled">
<g opacity="1">
<path d="M814.4 1091C800.4 1088.1 789.2 1076.7 786.6 1062.8L785.9 1059L797.5 1059L809.1 1059L810.5 1062.3C815 1073.1 829.9 1072.4 833.1 1061.2C833.8 1058.8 834.1 1043.8 833.9 1018L833.6 978.5L822.4 978.2L811.1 977.9L811.1 967.5L811.1 957L834.1 957L857.2 957L856.9 1011.3L856.6 1065.5L853.7 1071.7C848.4 1083.2 838 1090.2 824.5 1091.4C821.2 1091.7 816.7 1091.5 814.4 1091Z" fill="#151515" fill-rule="evenodd" opacity="1" stroke="none"/>
<path d="M896.7 1090.9C880.3 1088.2 865.7 1073.2 863.4 1056.8L862.8 1053L875 1053C884.3 1053 887.1 1053.3 887.1 1054.3C887.1 1055 888.3 1057.9 889.7 1060.8C893.1 1067.6 897.5 1070.3 905.1 1070.3C922.9 1070.3 930.8 1050.1 917.4 1039.1C915.4 1037.5 908.9 1034.3 902.7 1032C881.2 1023.8 874.4 1018.6 870.1 1007.4C866.9 998.9 867.5 984.8 871.3 977C876.4 966.5 886.8 959.1 899.2 957C919.9 953.4 939.1 967 942.9 987.8L943.8 993L932 993C921.5 993 920.1 992.8 920.1 991.3C920.1 988.4 916 981 913.8 979.8C906.7 976 899 977.1 894.2 982.5C891.5 985.6 891.1 986.8 891.1 992C891.1 1001.2 895.2 1005 910.6 1010C933 1017.3 943.8 1027.6 946.1 1044.1C948.7 1062.5 940 1079.9 924.5 1087.2C915.3 1091.5 906.8 1092.6 896.7 1090.9Z" fill="#151515" fill-rule="evenodd" opacity="1" stroke="none"/>
<path d="M1058.1 1081L1058.1 1070L1081.9 1069.8L1105.6 1069.5L1105.9 1052.8L1106.1 1036L1092.4 1036L1078.6 1036L1078.9 1025L1079.2 1014.1L1092.4 1013.8L1105.6 1013.5L1105.6 996L1105.6 978.5L1081.9 978.2L1058.1 978L1058.1 967L1058.1 956L1094.1 956L1130.1 956L1130.1 1024L1130.1 1092L1094.1 1092L1058.1 1092C1058.1 1092 1058.1 1081 1058.1 1081Z" fill="#151515" fill-rule="evenodd" opacity="1" stroke="none"/>
<path d="M1135.1 1081L1135.1 1070L1159.1 1070L1183.1 1070L1183.1 1053L1183.1 1036L1169.6 1036L1156.1 1036L1156.1 1025L1156.1 1014.1L1169.4 1013.8L1182.6 1013.5L1182.9 995.8L1183.1 978L1159.1 978L1135.1 978L1135.1 967L1135.1 956L1171.1 956L1207.1 956L1207.1 1024L1207.1 1092L1171.1 1092L1135.1 1092C1135.1 1092 1135.1 1081 1135.1 1081Z" fill="#151515" fill-rule="evenodd" opacity="1" stroke="none"/>
<path d="M1213.1 1024.5L1213.1 957L1237.6 957L1262.1 957L1262.1 967.5L1262.1 977.9L1249.9 978.2L1237.6 978.5L1237.3 1035.3L1237.1 1092L1225.1 1092L1213.1 1092C1213.1 1092 1213.1 1024.5 1213.1 1024.5Z" fill="#151515" fill-rule="evenodd" opacity="1" stroke="none"/>
<path d="M1028.1 1045.4C1028.1 1011.4 1027.8 999.9 1026.9 1000.2C1026.3 1000.4 1012.2 1020.4 995.7 1044.7L965.6 1088.8L965.3 1044.4C965.2 1018.4 964.7 1000 964.2 1000C963.7 1000 960.2 1004.4 956.5 1009.8C952.8 1015.1 949.4 1019.9 949 1020.5C948.5 1021 948.1 1012.7 948.1 1002L948.1 982.5L957.4 969.3L966.6 956L977.9 956L989.1 956L989.1 984C989.1 999.4 989.4 1012 989.9 1012C990.3 1011.9 999.4 999.3 1010.1 984L1029.6 956L1040.9 956L1052.1 956L1052.1 1023.5L1052.1 1091L1040.1 1091L1028.1 1091C1028.1 1091 1028.1 1045.4 1028.1 1045.4Z" fill="#151515" fill-rule="evenodd" opacity="1" stroke="none"/>
</g>
</g>
</svg>
