<?xml version="1.0" encoding="UTF-8" standalone="no"?>
<!DOCTYPE svg PUBLIC "-//W3C//DTD SVG 1.1//EN" "http://www.w3.org/Graphics/SVG/1.1/DTD/svg11.dtd">
<!-- Created with Vectornator (http://vectornator.io/) -->
<svg height="100%" stroke-miterlimit="10" style="fill-rule:nonzero;clip-rule:evenodd;stroke-linecap:round;stroke-linejoin:round;" version="1.1" viewBox="0 0 2048 600" width="100%" xml:space="preserve" xmlns="http://www.w3.org/2000/svg" xmlns:vectornator="http://vectornator.io" xmlns:xlink="http://www.w3.org/1999/xlink">
<defs/>
<g id="Layer-1" vectornator:layerName="Layer 1"/>
<g id="Untitled" vectornator:layerName="Untitled">
<g opacity="1">
<path d="M122.142 578.568C62.1425 566.139 14.1428 517.283 2.99998 457.711L0 441.426L49.714 441.426L99.4279 441.426L105.428 455.569C124.714 501.854 188.57 498.854 202.284 450.854C205.284 440.569 206.57 376.283 205.713 265.713L204.427 96.428L156.428 95.1423L107.999 93.8566L107.999 49.2854L107.999 4.28573L206.57 4.28573L305.57 4.28573L304.284 236.999L302.998 469.283L290.57 495.854C267.855 545.139 223.284 575.139 165.428 580.282C151.285 581.568 131.999 580.711 122.142 578.568Z" fill="#151515" fill-rule="evenodd" opacity="1" stroke="none"/>
<path d="M474.854 578.139C404.569 566.568 341.998 502.283 332.141 431.997L329.569 415.712L381.855 415.712C421.712 415.712 433.712 416.997 433.712 421.283C433.712 424.283 438.854 436.712 444.854 449.14C459.426 478.283 478.283 489.854 510.854 489.854C587.139 489.854 620.996 403.283 563.568 356.141C554.997 349.284 527.14 335.569 500.568 325.712C408.426 290.57 379.283 268.284 360.855 220.284C347.141 183.856 349.712 123.428 365.998 89.9995C387.855 44.9997 432.426 13.2857 485.568 4.28571C574.282-11.1428 656.567 47.1426 672.853 136.285L676.71 158.57L626.139 158.57C581.139 158.57 575.139 157.713 575.139 151.285C575.139 138.856 557.568 107.142 548.139 101.999C517.711 85.7138 484.711 90.428 464.14 113.571C452.569 126.856 450.854 131.999 450.854 154.285C450.854 193.713 468.426 209.999 534.425 231.427C630.425 262.713 676.71 306.855 686.567 377.569C697.71 456.426 660.424 530.997 593.996 562.282C554.568 580.711 518.14 585.425 474.854 578.139Z" fill="#151515" fill-rule="evenodd" opacity="1" stroke="none"/>
<path d="M1166.56 535.711L1166.56 488.568L1268.56 487.711L1370.13 486.426L1371.42 414.855L1372.28 342.855L1313.56 342.855L1254.42 342.855L1255.71 295.712L1256.99 248.998L1313.56 247.713L1370.13 246.427L1370.13 171.428L1370.13 96.428L1268.56 95.1423L1166.56 94.2852L1166.56 47.1426L1166.56 5.04508e-05L1320.85 5.04508e-05L1475.13 5.04508e-05L1475.13 291.427L1475.13 582.854L1320.85 582.854L1166.56 582.854C1166.56 582.854 1166.56 535.711 1166.56 535.711Z" fill="#151515" fill-rule="evenodd" opacity="1" stroke="none"/>
<path d="M1496.56 535.711L1496.56 488.568L1599.42 488.568L1702.27 488.568L1702.27 415.712L1702.27 342.855L1644.42 342.855L1586.56 342.855L1586.56 295.712L1586.56 248.998L1643.56 247.713L1700.13 246.427L1701.42 170.57L1702.27 94.2852L1599.42 94.2852L1496.56 94.2852L1496.56 47.1426L1496.56 5.05785e-05L1650.85 5.05785e-05L1805.13 5.05785e-05L1805.13 291.427L1805.13 582.854L1650.85 582.854L1496.56 582.854C1496.56 582.854 1496.56 535.711 1496.56 535.711Z" fill="#151515" fill-rule="evenodd" opacity="1" stroke="none"/>
<path d="M1830.85 293.57L1830.85 4.28574L1935.84 4.28574L2040.84 4.28574L2040.84 49.2855L2040.84 93.8566L1988.56 95.1423L1935.84 96.428L1934.56 339.855L1933.7 582.854L1882.27 582.854L1830.85 582.854C1830.85 582.854 1830.85 293.57 1830.85 293.57Z" fill="#151515" fill-rule="evenodd" opacity="1" stroke="none"/>
<path d="M1037.99 383.14C1037.99 237.427 1036.71 188.142 1032.85 189.427C1030.28 190.285 969.851 275.998 899.137 380.14L770.138 569.139L768.852 378.855C768.424 267.427 766.281 188.57 764.138 188.57C761.995 188.57 746.995 207.427 731.138 230.57C715.281 253.284 700.71 273.855 698.996 276.427C696.853 278.57 695.138 242.998 695.138 197.142L695.138 113.571L734.995 56.9996L774.424 0L822.852 0L870.852 0L870.852 119.999C870.852 185.999 872.137 239.998 874.28 239.998C875.994 239.57 914.994 185.57 960.851 119.999L1044.42 0L1092.85 0L1140.85 0L1140.85 289.284L1140.85 578.568L1089.42 578.568L1037.99 578.568C1037.99 578.568 1037.99 383.14 1037.99 383.14Z" fill="#151515" fill-rule="evenodd" opacity="1" stroke="none"/>
</g>
</g>
</svg>
